<svg id="Capa_1" enable-background="new 0 0 512 512" height="512" viewBox="0 0 512 512" width="512" xmlns="http://www.w3.org/2000/svg" xmlns:xlink="http://www.w3.org/1999/xlink"><linearGradient id="SVGID_1_" gradientUnits="userSpaceOnUse" x1="256" x2="256" y1="512" y2="0"><stop offset="0" stop-color="#fd3a84"/><stop offset="1" stop-color="#ffa68d"/></linearGradient><g><g><path d="m497 122h-45v-47c0-8.284-6.716-15-15-15s-15 6.716-15 15v47h-30v-107c0-8.284-6.716-15-15-15s-15 6.716-15 15v107h-347c-8.284 0-15 6.716-15 15v360c0 8.284 6.716 15 15 15h482c8.284 0 15-6.716 15-15v-360c0-8.284-6.716-15-15-15zm-15 360h-361v-30h46c8.284 0 15-6.716 15-15v-240c0-8.284-6.716-15-15-15h-92c-8.284 0-15 6.716-15 15v240c0 8.284 6.716 15 15 15h16v30h-61v-330h452zm-392-60v-210h62v210zm137-150h210c8.284 0 15-6.716 15-15v-60c0-8.284-6.716-15-15-15h-210c-8.284 0-15 6.716-15 15v60c0 8.284 6.716 15 15 15zm15-60h180v30h-180zm-15 120h30c8.284 0 15-6.716 15-15s-6.716-15-15-15h-30c-8.284 0-15 6.716-15 15s6.716 15 15 15zm120-30h-30c-8.284 0-15 6.716-15 15s6.716 15 15 15h30c8.284 0 15-6.716 15-15s-6.716-15-15-15zm90 0h-30c-8.284 0-15 6.716-15 15s6.716 15 15 15h30c8.284 0 15-6.716 15-15s-6.716-15-15-15zm-210 90h30c8.284 0 15-6.716 15-15s-6.716-15-15-15h-30c-8.284 0-15 6.716-15 15s6.716 15 15 15zm120-30h-30c-8.284 0-15 6.716-15 15s6.716 15 15 15h30c8.284 0 15-6.716 15-15s-6.716-15-15-15zm90 0h-30c-8.284 0-15 6.716-15 15s6.716 15 15 15h30c8.284 0 15-6.716 15-15s-6.716-15-15-15zm-210 90h30c8.284 0 15-6.716 15-15s-6.716-15-15-15h-30c-8.284 0-15 6.716-15 15s6.716 15 15 15zm120-30h-30c-8.284 0-15 6.716-15 15s6.716 15 15 15h30c8.284 0 15-6.716 15-15s-6.716-15-15-15zm90 0h-30c-8.284 0-15 6.716-15 15s6.716 15 15 15h30c8.284 0 15-6.716 15-15s-6.716-15-15-15z" fill="url(#SVGID_1_)"/></g></g></svg>